<?xml version="1.0" encoding="utf-8"?>
<svg width="107" height="87" viewBox="0 0 107 87" fill="none" xmlns="http://www.w3.org/2000/svg" xmlns:bx="https://boxy-svg.com"><defs><bx:export><bx:file format="svg" excluded="true"/><bx:file format="svg" path="Untitled 3.svg"/><bx:file format="svg" href="#object-0" path="Untitled 2.svg"/></bx:export></defs><path d="M 103.348 47.477 C 96.523 47.477 90.008 47.505 83.464 47.421 C 83.041 47.421 82.421 46.888 82.195 46.44 C 78.331 39.348 72.718 34.247 65.244 31.107 C 50.86 25.081 33.401 30.351 24.827 43.385 C 24.432 43.973 23.925 44.506 23.727 45.15 C 23.05 47.169 21.697 47.589 19.666 47.505 C 14.504 47.337 9.343 47.449 4.153 47.449 C 3.646 47.449 3.138 47.449 2.348 47.449 C 2.941 45.683 3.42 44.029 4.097 42.46 C 4.238 42.123 5 41.899 5.479 41.899 C 8.948 41.927 12.446 42.011 15.915 42.151 C 17.043 42.207 17.748 41.843 18.368 40.946 C 19.44 39.404 20.653 37.975 21.668 36.405 C 22.007 35.872 22.204 34.976 22.007 34.387 C 20.907 31.107 19.694 27.884 18.481 24.66 C 18.143 23.791 18.199 23.203 19.017 22.642 C 21.048 21.297 23.022 19.867 24.996 18.466 C 25.702 17.961 26.266 17.933 26.999 18.494 C 29.735 20.624 32.555 22.67 35.291 24.773 C 36.137 25.417 36.927 25.641 37.999 25.193 C 39.55 24.576 41.186 24.072 42.822 23.707 C 44.119 23.427 44.683 22.726 45.022 21.521 C 45.868 18.466 46.883 15.466 47.757 12.411 C 48.124 11.15 48.829 10.701 50.098 10.757 C 52.383 10.87 54.696 10.87 56.98 10.898 C 57.939 10.898 58.362 11.346 58.616 12.271 C 59.519 15.41 60.534 18.522 61.437 21.661 C 61.775 22.895 62.396 23.651 63.721 23.96 C 65.272 24.324 66.767 24.857 68.262 25.417 C 69.193 25.782 69.954 25.67 70.744 25.053 C 73.198 23.175 75.68 21.325 78.162 19.475 C 80.418 17.793 79.826 17.905 82.054 19.447 C 83.662 20.568 85.241 21.773 86.877 22.838 C 87.779 23.427 87.977 24.044 87.582 25.053 C 86.397 28.136 85.326 31.276 84.113 34.387 C 83.69 35.48 83.831 36.349 84.564 37.218 C 85.1 37.863 85.692 38.507 86.087 39.236 C 87.328 41.675 89.19 42.488 91.926 42.151 C 94.661 41.815 97.454 41.955 100.217 41.843 C 101.092 41.815 101.599 42.095 101.853 42.964 C 102.333 44.478 102.84 45.851 103.348 47.477 Z" fill="#FF3811"/><text style="fill: rgb(68, 68, 68); font-family: Arial, sans-serif; font-size: 23px; font-weight: 700; white-space: pre;" x="-0.162" y="69.405" id="object-0">DriveWell</text></svg>